<?xml version="1.0" standalone="no"?>
<!DOCTYPE svg PUBLIC "-//W3C//DTD SVG 20010904//EN"
 "http://www.w3.org/TR/2001/REC-SVG-20010904/DTD/svg10.dtd">
<svg version="1.0" xmlns="http://www.w3.org/2000/svg"
 width="1280.000000pt" height="1280.000000pt" viewBox="0 0 1280.000000 1280.000000"
 preserveAspectRatio="xMidYMid meet">
<g transform="translate(0.000000,1280.000000) scale(0.100000,-0.100000)"
fill="#000000" stroke="none">
<path d="M1310 12442 c0 -4 1242 -1364 2760 -3022 1518 -1658 2760 -3021 2760
-3028 0 -7 -1241 -1367 -2757 -3024 -1517 -1656 -2759 -3015 -2761 -3020 -2
-4 1049 -8 2335 -8 l2339 0 2764 3019 c1520 1661 2766 3024 2768 3030 3 8
-4939 5417 -5426 5939 l-114 122 -2334 0 c-1284 0 -2334 -4 -2334 -8z"/>
</g>
</svg>
