<?xml version="1.0" standalone="no"?>
<!DOCTYPE svg PUBLIC "-//W3C//DTD SVG 20010904//EN"
 "http://www.w3.org/TR/2001/REC-SVG-20010904/DTD/svg10.dtd">
<svg version="1.0" xmlns="http://www.w3.org/2000/svg"
 width="1280.000000pt" height="1280.000000pt" viewBox="0 0 1280.000000 1280.000000"
 preserveAspectRatio="xMidYMid meet">
<metadata>
Created by potrace 1.15, written by Peter Selinger 2001-2017
</metadata>
<g transform="translate(0.000000,1280.000000) scale(0.100000,-0.100000)"
fill="#000000" stroke="none">
<path d="M5920 10824 c-485 -33 -839 -106 -1205 -251 -843 -333 -1534 -996
-1956 -1878 -354 -739 -486 -1631 -383 -2590 52 -486 172 -947 347 -1335 64
-140 605 -1196 672 -1310 580 -988 1517 -1604 2658 -1745 537 -67 1200 -22
1772 120 1101 272 1910 857 2657 1923 149 213 188 287 188 356 0 63 -34 138
-81 182 -111 103 -354 275 -893 634 l-608 404 -66 4 c-95 5 -139 -20 -220
-123 -313 -398 -585 -671 -876 -879 -421 -301 -846 -468 -1376 -541 -159 -22
-526 -31 -676 -16 -370 37 -692 154 -966 349 -71 50 -79 60 -104 121 -184 459
-303 1051 -331 1651 l-6 136 364 17 c200 10 398 20 439 22 41 3 257 14 480 25
408 20 1685 83 2425 120 220 11 443 22 495 25 103 6 461 23 1110 55 729 36
711 34 769 66 59 32 96 76 118 140 13 39 15 94 10 382 -3 206 -11 395 -21 487
-108 996 -449 1764 -1037 2341 -423 414 -891 672 -1497 825 -180 45 -1327 241
-1546 264 -144 15 -545 27 -656 19z m1320 -1165 c430 -324 686 -899 776 -1743
9 -86 15 -158 13 -160 -2 -2 -206 -11 -454 -20 -247 -9 -628 -23 -845 -31
-217 -8 -453 -17 -525 -20 -319 -12 -1142 -42 -1407 -51 -115 -4 -208 -4 -208
0 0 18 77 244 115 337 161 395 393 746 690 1045 469 471 990 698 1612 703
l152 1 81 -61z"/>
</g>
</svg>
